HIERARCHY
ROOT Hips
{
	OFFSET 0.00000 0.00000 0.00000
	CHANNELS 6 Xposition Yposition Zposition Zrotation Yrotation Xrotation 
	JOINT LHipJoint
	{
		OFFSET 0 0 0
		CHANNELS 3 Zrotation Yrotation Xrotation
		JOINT LeftUpLeg
		{
			OFFSET 1.57358 -1.76629 0.73362
			CHANNELS 3 Zrotation Yrotation Xrotation
			JOINT LeftLeg
			{
				OFFSET 2.40600 -6.61045 0.00000
				CHANNELS 3 Zrotation Yrotation Xrotation
				JOINT LeftFoot
				{
					OFFSET 2.66168 -7.31291 0.00000
					CHANNELS 3 Zrotation Yrotation Xrotation
					JOINT LeftToeBase
					{
						OFFSET 0.20870 -0.57341 2.12506
						CHANNELS 3 Zrotation Yrotation Xrotation
						End Site
						{
							OFFSET 0.00000 -0.00000 1.10557
						}
					}
				}
			}
		}
	}
	JOINT RHipJoint
	{
		OFFSET 0 0 0
		CHANNELS 3 Zrotation Yrotation Xrotation
		JOINT RightUpLeg
		{
			OFFSET -1.49299 -1.76629 0.73362
			CHANNELS 3 Zrotation Yrotation Xrotation
			JOINT RightLeg
			{
				OFFSET -2.43663 -6.69460 0.00000
				CHANNELS 3 Zrotation Yrotation Xrotation
				JOINT RightFoot
				{
					OFFSET -2.62959 -7.22474 0.00000
					CHANNELS 3 Zrotation Yrotation Xrotation
					JOINT RightToeBase
					{
						OFFSET -0.25784 -0.70841 2.21862
						CHANNELS 3 Zrotation Yrotation Xrotation
						End Site
						{
							OFFSET -0.00000 -0.00000 1.16452
						}
					}
				}
			}
		}
	}
	JOINT LowerBack
	{
		OFFSET 0 0 0
		CHANNELS 3 Zrotation Yrotation Xrotation
		JOINT Spine
		{
			OFFSET -0.00034 2.12399 -0.25450
			CHANNELS 3 Zrotation Yrotation Xrotation
			JOINT Spine1
			{
				OFFSET 0.05594 2.14379 -0.03318
				CHANNELS 3 Zrotation Yrotation Xrotation
				JOINT Neck
				{
					OFFSET 0 0 0
					CHANNELS 3 Zrotation Yrotation Xrotation
					JOINT Neck1
					{
						OFFSET -0.09835 1.62725 0.24211
						CHANNELS 3 Zrotation Yrotation Xrotation
						JOINT Head
						{
							OFFSET 0.10849 1.66041 -0.22648
							CHANNELS 3 Zrotation Yrotation Xrotation
							End Site
							{
								OFFSET 0.04385 1.68267 -0.10541
							}
						}
					}
				}
				JOINT LeftShoulder
				{
					OFFSET 0 0 0
					CHANNELS 3 Zrotation Yrotation Xrotation
					JOINT LeftArm
					{
						OFFSET 3.29108 0.79398 -0.68179
						CHANNELS 3 Zrotation Yrotation Xrotation
						JOINT LeftForeArm
						{
							OFFSET 5.15310 -0.00000 -0.00000
							CHANNELS 3 Zrotation Yrotation Xrotation
							JOINT LeftHand
							{
								OFFSET 3.75138 -0.00000 -0.00000
								CHANNELS 3 Zrotation Yrotation Xrotation
								JOINT LeftFingerBase
								{
									OFFSET 0 0 0
									CHANNELS 3 Zrotation Yrotation Xrotation
									JOINT LeftHandIndex1
									{
										OFFSET 0.52917 -0.00000 0.00000
										CHANNELS 3 Zrotation Yrotation Xrotation
										End Site
										{
											OFFSET 0.42663 -0.00000 0.00000
										}
									}
								}
								JOINT LThumb
								{
									OFFSET 0 0 0
									CHANNELS 3 Zrotation Yrotation Xrotation
									End Site
									{
										OFFSET 0.43315 -0.00000 0.43315
									}
								}
							}
						}
					}
				}
				JOINT RightShoulder
				{
					OFFSET 0 0 0
					CHANNELS 3 Zrotation Yrotation Xrotation
					JOINT RightArm
					{
						OFFSET -3.07414 1.06285 -0.44338
						CHANNELS 3 Zrotation Yrotation Xrotation
						JOINT RightForeArm
						{
							OFFSET -5.29613 -0.00000 0.00000
							CHANNELS 3 Zrotation Yrotation Xrotation
							JOINT RightHand
							{
								OFFSET -3.76144 -0.00000 -0.00000
								CHANNELS 3 Zrotation Yrotation Xrotation
								JOINT RightFingerBase
								{
									OFFSET 0 0 0
									CHANNELS 3 Zrotation Yrotation Xrotation
									JOINT RightHandIndex1
									{
										OFFSET -0.74732 -0.00000 0.00000
										CHANNELS 3 Zrotation Yrotation Xrotation
										End Site
										{
											OFFSET -0.60251 -0.00000 0.00000
										}
									}
								}
								JOINT RThumb
								{
									OFFSET 0 0 0
									CHANNELS 3 Zrotation Yrotation Xrotation
									End Site
									{
										OFFSET -0.61171 -0.00000 0.61171
									}
								}
							}
						}
					}
				}
			}
		}
	}
}
MOTION
Frames: 12
Frame Time: .0083333
12.472700 17.255200 -27.389300 -0.968300 8.696900 -2.298500 0.000000 0.000000 0.000000 -18.858000 -4.588600 -1.253300 9.855700 17.327900 59.005100 0.165200 -12.941400 20.310800 0.358000 -3.843600 -10.637200 0.000000 0.000000 0.000000 24.738100 10.047900 -19.444700 -2.943800 -10.603500 30.954100 -0.080500 -1.190500 -5.935300 -0.043400 -1.344000 3.695700 -1.226600 -1.925300 7.965200 4.077100 -2.494300 0.044800 5.230900 -1.172300 -4.187500 -10.020200 -3.879800 -13.844400 4.512100 -4.046900 19.677300 2.716500 -2.190800 8.740000 0.000000 0.000000 0.000000 -90.764400 -3.186500 19.910600 16.623700 -26.359000 -3.918800 -0.000000 -0.000000 2.631800 19.943300 21.560500 7.595100 -7.125000 0.000000 -0.000000 -9.072400 52.553500 -1.697900 0.000000 0.000000 0.000000 89.890500 -10.560100 -7.524800 -9.880700 16.552800 -1.440800 0.000000 0.000000 23.771000 -13.211500 9.065100 -2.118300 7.125000 -0.000000 -0.000000 9.830600 -20.731900 5.798700
12.479500 17.288400 -27.153000 -1.164100 8.320900 -2.324100 0.000000 0.000000 0.000000 -18.369700 -4.509000 -3.398800 10.455700 17.658200 61.000700 -0.135400 -13.034400 16.750100 0.569400 -4.832800 -13.432300 0.000000 0.000000 0.000000 25.284300 9.852000 -18.293500 -2.873000 -10.486600 30.567500 -0.105300 -0.822200 -6.486300 -0.039600 -1.284800 3.532900 -1.053200 -1.755700 8.014300 4.086600 -2.250100 0.020700 5.119100 -1.052100 -4.270400 -9.923400 -3.841000 -14.005600 4.663300 -4.035300 19.832300 2.753700 -2.162900 8.821000 -0.000000 0.000000 0.000000 -90.804700 -3.055800 19.558300 15.984200 -25.499200 -3.639100 -0.000000 -0.000000 3.647600 20.031600 21.246300 7.526400 -7.125000 0.000000 -0.000000 -8.871600 52.246800 -1.592900 -0.000000 0.000000 0.000000 89.775400 -9.895500 -7.825400 -9.738100 16.328900 -1.400400 0.000000 0.000000 24.716000 -13.431100 9.656800 -2.294000 7.125000 -0.000000 -0.000000 9.652300 -20.123400 5.824500
12.488100 17.318000 -26.918700 -1.377300 8.073300 -2.287000 0.000000 0.000000 0.000000 -17.861200 -4.585000 -5.339100 10.960500 17.915700 62.653200 -0.247900 -12.447900 13.956000 0.728800 -5.454700 -15.210100 0.000000 0.000000 0.000000 25.801800 9.629800 -17.341700 -2.836400 -10.425400 30.365400 -0.135300 -0.477400 -7.138300 -0.032000 -1.154800 3.174900 -0.785000 -1.620500 8.023700 4.057500 -2.044600 -0.007300 4.914300 -0.954200 -4.334700 -9.833000 -3.940100 -14.441500 4.698700 -4.175800 20.641200 2.735800 -2.224000 9.189300 -0.000000 0.000000 0.000000 -90.793700 -2.910600 18.709500 15.475200 -24.803900 -3.422800 -0.000000 -0.000000 4.134200 18.393300 18.585700 6.049800 -7.125000 0.000000 -0.000000 -9.590500 49.251500 -1.013900 -0.000000 0.000000 0.000000 89.720000 -9.430000 -7.343900 -9.772200 16.382400 -1.410000 0.000000 0.000000 25.032500 -13.842100 10.374200 -2.540600 7.125000 -0.000000 -0.000000 9.339400 -19.375500 5.789000
12.497200 17.342900 -26.687200 -1.196300 7.857000 -2.090400 0.000000 0.000000 0.000000 -17.837800 -4.789600 -7.154700 11.366300 18.109700 63.965300 -0.252900 -11.399600 11.809800 0.741800 -5.501800 -15.345400 0.000000 0.000000 0.000000 25.824400 9.293100 -16.667400 -2.825400 -10.406900 30.304600 -0.168700 -0.225400 -7.842600 -0.021000 -0.935900 2.572500 -0.883500 -1.512200 8.230500 3.888800 -1.906100 -0.337500 4.796200 -0.872100 -4.811200 -9.587600 -4.070700 -14.136400 4.444900 -4.396600 20.862300 2.584100 -2.342000 9.215800 0.000000 0.000000 0.000000 -90.750200 -1.934400 19.893200 15.783800 -25.226600 -3.553300 -0.000000 -0.000000 4.621000 19.796800 24.618800 8.528000 -7.125000 0.000000 -0.000000 -10.464500 55.640200 -2.754300 0.000000 0.000000 0.000000 89.730300 -9.598300 -5.848500 -10.078800 16.862800 -1.497700 0.000000 0.000000 24.096400 -13.969400 9.864000 -2.440200 7.125000 -0.000000 -0.000000 9.263700 -19.886200 5.633600
12.516700 17.352800 -26.466600 -1.095000 7.239800 -2.114900 0.000000 0.000000 0.000000 -17.753400 -4.425800 -8.680700 11.693600 18.258100 65.014200 -0.241500 -10.203700 9.475100 0.442800 -4.269600 -11.836400 0.000000 0.000000 0.000000 25.935800 8.893000 -15.857400 -2.817000 -10.392700 30.258000 -0.192000 0.079200 -8.248700 -0.007400 -0.554000 1.522200 -0.559200 -1.348400 8.932200 3.543400 -1.652000 -0.765700 4.257500 -0.739400 -5.698400 -9.456500 -3.906500 -13.656200 4.811000 -4.337000 20.981300 2.704400 -2.273300 9.165500 -0.000000 -0.000000 0.000000 -90.400200 -0.877100 19.674900 15.888700 -25.369500 -3.598200 -0.000000 -0.000000 6.974900 17.351200 29.160900 8.656400 -7.125000 0.000000 -0.000000 -15.571700 59.610000 -5.638100 -0.000000 -0.000000 0.000000 89.961400 -9.936300 -3.541400 -10.690500 17.812300 -1.680000 0.000000 0.000000 21.719800 -12.809600 6.821400 -1.547000 7.125000 -0.000000 -0.000000 10.229400 -23.011900 5.501800
12.535700 17.371100 -26.253900 -1.139000 6.535200 -2.232200 0.000000 0.000000 0.000000 -17.516700 -3.981000 -10.333100 11.966200 18.376300 65.881700 -0.140100 -8.298300 8.364000 0.069300 -1.698200 -4.672300 0.000000 0.000000 0.000000 26.215700 8.625200 -14.943800 -2.806600 -10.375100 30.200300 -0.212700 0.511700 -8.543000 -0.001500 -0.253800 0.697300 -0.765100 -1.028000 8.608800 3.809100 -1.250200 -0.221400 4.575900 -0.549400 -4.964600 -9.958200 -4.002900 -14.113700 5.009000 -4.338800 20.597600 2.846900 -2.281000 9.135900 -0.000000 0.000000 0.000000 -91.071900 -1.545700 19.233700 15.654500 -25.049900 -3.498400 -0.000000 -0.000000 8.407000 15.694000 29.701200 7.925600 -7.125000 0.000000 -0.000000 -17.718800 59.744400 -6.501100 -0.000000 0.000000 0.000000 89.189300 -8.368400 -4.075600 -10.316100 17.232500 -1.567300 0.000000 0.000000 23.755400 -14.224900 9.823100 -2.476500 7.125000 -0.000000 -0.000000 9.083500 -19.914400 5.515400
12.546500 17.392800 -26.041300 -1.389400 6.156900 -2.306400 0.000000 0.000000 0.000000 -16.977900 -3.833700 -12.181600 12.180900 18.466100 66.560900 -0.032000 -6.488700 8.383800 0.044100 1.356100 3.729100 0.000000 0.000000 0.000000 26.743200 8.337500 -14.000900 -2.769900 -10.313000 29.996300 -0.234700 0.733000 -8.919700 -0.003600 -0.387400 1.064500 -0.554400 -0.871200 8.454200 3.961900 -1.030700 0.343400 4.571500 -0.460600 -4.306200 -10.142100 -4.217800 -15.311100 4.998700 -4.462500 20.663300 2.844100 -2.338100 9.396300 -0.000000 -0.000000 0.000000 -91.373800 -2.128500 19.691400 15.532400 -24.882600 -3.446900 -0.000000 -0.000000 7.293800 15.985800 27.695700 7.584200 -7.125000 0.000000 -0.000000 -16.080300 57.885100 -5.158900 -0.000000 -0.000000 0.000000 88.721600 -6.668300 -3.257100 -10.373600 17.321800 -1.584400 0.000000 0.000000 23.556600 -14.505600 10.256300 -2.637500 7.125000 -0.000000 -0.000000 8.873500 -19.458400 5.476300
12.560900 17.401800 -25.826800 -1.793200 5.900900 -2.207300 0.000000 0.000000 0.000000 -16.311300 -3.946800 -14.091800 12.350500 18.534900 67.095700 -0.080900 -5.880900 5.378900 0.000500 0.150800 0.414300 0.000000 0.000000 0.000000 27.383300 8.032100 -13.246900 -2.715600 -10.219700 29.691200 -0.256800 0.633500 -9.367800 -0.000900 -0.190800 0.524100 0.034200 -0.827700 8.280600 4.103500 -0.930800 0.859100 4.357800 -0.433700 -3.687000 -10.488200 -4.472600 -17.302500 5.043300 -4.527600 21.232100 2.890500 -2.371000 9.984800 0.000000 0.000000 0.000000 -91.565500 -2.661300 20.928200 15.215800 -24.445900 -3.314800 -0.000000 -0.000000 4.081900 19.442700 23.213600 7.921100 -7.125000 0.000000 -0.000000 -10.219100 54.146700 -2.315800 0.000000 0.000000 0.000000 88.271200 -4.942200 -1.668400 -10.635000 17.726600 -1.663100 0.000000 0.000000 22.265600 -14.252000 9.833300 -2.483900 7.125000 -0.000000 -0.000000 9.064000 -19.902500 5.505700
12.527100 17.421300 -25.572400 -2.123300 6.807900 -2.316800 0.000000 0.000000 0.000000 -15.504600 -4.745800 -15.324200 12.397400 18.553600 67.243100 -0.126600 -6.320700 1.715500 0.130200 -2.326300 -6.408200 0.000000 0.000000 0.000000 28.183100 7.575400 -12.017600 -2.652900 -10.110800 29.336300 -0.292300 -0.103500 -10.250700 -0.000300 -0.116500 0.320200 -0.267500 -0.996900 7.998800 4.172800 -1.172200 0.403400 4.631800 -0.539900 -3.978000 -10.174500 -4.305300 -15.114400 5.064200 -4.613000 20.665000 2.854700 -2.406200 9.375600 -0.000000 0.000000 0.000000 -91.386900 -1.246200 20.262000 14.988400 -24.130000 -3.221200 -0.000000 -0.000000 8.351700 17.185400 25.885500 7.689600 -7.125000 0.000000 -0.000000 -13.795600 56.371600 -3.898800 -0.000000 0.000000 0.000000 88.357800 -5.634100 -1.271300 -10.707000 17.837700 -1.685100 0.000000 0.000000 22.832400 -15.595700 11.772000 -3.259300 7.125000 -0.000000 -0.000000 8.085500 -17.842900 5.272000
12.523500 17.434500 -25.338000 -2.128800 7.106900 -2.189300 0.000000 0.000000 0.000000 -15.279600 -5.282600 -16.911500 12.399900 18.554600 67.251000 -0.086600 -5.948100 -0.882500 0.264500 -3.308200 -9.138100 0.000000 0.000000 0.000000 28.435500 7.272400 -11.156100 -2.594000 -10.006800 28.998900 -0.317700 -0.612900 -10.887000 -0.000100 0.078200 -0.214800 -0.430900 -0.995700 7.814700 4.094700 -1.183800 0.125500 4.644900 -0.537600 -4.161700 -9.901700 -4.185400 -14.090300 5.092000 -4.618900 20.310400 2.828300 -2.394900 9.055800 0.000000 0.000000 0.000000 -91.251800 -0.455200 20.294300 14.620300 -23.614500 -3.072200 -0.000000 -0.000000 9.970900 16.460000 26.553100 7.523900 -7.125000 0.000000 -0.000000 -14.912300 56.875900 -4.407300 0.000000 0.000000 0.000000 88.318500 -5.770600 1.047300 -11.486400 19.030000 -1.931600 0.000000 0.000000 19.491700 -14.157000 8.760300 -2.200000 7.125000 -0.000000 -0.000000 9.165400 -20.997900 5.340000
12.539400 17.437600 -25.108800 -2.254700 6.800800 -2.168500 0.000000 0.000000 0.000000 -15.003300 -5.292300 -18.427100 12.341500 18.531300 67.067200 -0.029500 -4.767000 -2.169400 0.115800 -2.194000 -6.042000 0.000000 0.000000 0.000000 28.771600 7.012500 -10.190800 -2.543400 -9.916500 28.706600 -0.355900 -0.709600 -11.548700 -0.003000 0.353000 -0.969800 -0.201100 -0.809600 7.731900 4.027500 -0.919900 0.145000 4.411300 -0.412400 -4.121200 -9.759600 -4.214400 -13.993200 5.107900 -4.705000 20.260200 2.800300 -2.423300 9.023700 -0.000000 -0.000000 0.000000 -91.107700 0.022400 21.248700 14.419600 -23.331400 -2.992300 -0.000000 -0.000000 9.019300 16.634100 25.987200 7.458100 -7.125000 0.000000 -0.000000 -14.419700 56.358000 -4.075500 -0.000000 -0.000000 0.000000 88.169400 -5.260700 2.171500 -11.864400 19.601000 -2.056600 0.000000 0.000000 18.054000 -13.763900 8.386800 -2.046200 7.125000 -0.000000 -0.000000 9.461800 -21.394400 5.431300
12.545800 17.428800 -24.894100 -2.764100 6.223500 -2.279300 0.000000 0.000000 0.000000 -14.195400 -5.070100 -20.003500 12.263500 18.499800 66.821600 0.017100 -3.812800 -3.361400 0.031000 -1.136000 -3.123000 0.000000 0.000000 0.000000 29.656200 7.402200 -9.077400 -2.514300 -9.863800 28.536800 -0.389600 -1.171600 -12.273600 -0.017500 0.855000 -2.350100 0.238100 -0.566100 8.017000 4.148100 -0.544000 0.184300 4.252500 -0.231600 -4.272800 -9.663400 -4.274400 -14.153400 4.995300 -4.770400 20.308600 2.735400 -2.456300 9.070100 0.000000 -0.000000 0.000000 -91.048400 0.467300 21.557600 14.323300 -23.195000 -2.954300 -0.000000 -0.000000 9.600300 15.983700 25.356900 6.993500 -7.125000 0.000000 -0.000000 -14.750800 55.608900 -3.901900 0.000000 -0.000000 0.000000 87.884400 -4.748900 3.528000 -12.278400 20.220900 -2.197600 0.000000 0.000000 16.647100 -14.353100 10.010600 -2.546900 7.125000 -0.000000 -0.000000 8.987500 -19.716900 5.495900
